<svg enable-background="new 0 0 32 32" height="512" viewBox="0 0 32 32" width="512" xmlns="http://www.w3.org/2000/svg"><path d="m26 32h-20c-3.314 0-6-2.686-6-6v-20c0-3.314 2.686-6 6-6h20c3.314 0 6 2.686 6 6v20c0 3.314-2.686 6-6 6z" fill="#f5e6fe"/><g fill="#d9a4fc"><path d="m23.5 13.75h-6.333c-.276 0-.5.224-.5.5s.224.5.5.5h6.333c.276 0 .5-.224.5-.5s-.224-.5-.5-.5z"/><path d="m23.5 15.75h-6.333c-.276 0-.5.224-.5.5s.224.5.5.5h6.333c.276 0 .5-.224.5-.5s-.224-.5-.5-.5z"/><path d="m23.5 17.75h-6.333c-.276 0-.5.224-.5.5s.224.5.5.5h6.333c.276 0 .5-.224.5-.5s-.224-.5-.5-.5z"/><path d="m23.5 19.75h-6.333c-.276 0-.5.224-.5.5s.224.5.5.5h6.333c.276 0 .5-.224.5-.5s-.224-.5-.5-.5z"/><path d="m23.5 21.75h-6.333c-.276 0-.5.224-.5.5s.224.5.5.5h6.333c.276 0 .5-.224.5-.5s-.224-.5-.5-.5z"/><path d="m23.5 7.75h-15c-.276 0-.5.224-.5.5s.224.5.5.5h15c.276 0 .5-.224.5-.5s-.224-.5-.5-.5z"/><path d="m23.5 9.75h-15c-.276 0-.5.224-.5.5s.224.5.5.5h15c.276 0 .5-.224.5-.5s-.224-.5-.5-.5z"/><path d="m23.5 11.75h-15c-.276 0-.5.224-.5.5s.224.5.5.5h15c.276 0 .5-.224.5-.5s-.224-.5-.5-.5z"/></g><path d="m9.167 22.75h5c.643 0 1.167-.523 1.167-1.167v-6.667c0-.643-.523-1.167-1.167-1.167h-5c-.644.001-1.167.524-1.167 1.168v6.667c0 .643.523 1.166 1.167 1.166z" fill="#be63f9"/></svg>